<svg width="23" height="16" viewBox="0 0 23 16" fill="none" xmlns="http://www.w3.org/2000/svg"><path d="M22.86 7.43A12.84 12.84 0 0011.5.5C6.6.5 2.3 3.3.14 7.43a1.24 1.24 0 000 1.14A12.84 12.84 0 0011.5 15.5c4.9 0 9.2-2.8 11.36-6.93a1.24 1.24 0 000-1.14zm-11.36 6.2a5.84 5.84 0 01-3.2-.95 5.51 5.51 0 01-.87-8.65A5.8 5.8 0 0113.7 2.8a5.72 5.72 0 012.58 2.07 5.54 5.54 0 01-2.58 8.33c-.7.28-1.44.43-2.2.43zm0-9.38c-.34 0-.68.05-1.01.15a1.84 1.84 0 01-.19 2.43A1.93 1.93 0 017.82 7a3.66 3.66 0 001.56 4.09 3.89 3.89 0 004.46-.14 3.74 3.74 0 001.29-4.17 3.75 3.75 0 00-1.4-1.84 3.88 3.88 0 00-2.23-.7z" fill="#172F3D"/></svg>