<svg fill="none" xmlns="http://www.w3.org/2000/svg" viewBox="0 0 16 16">
  <g clip-path="url(#clip0)" fill="currentColor">
    <path d="M3.67 0a.33.33 0 00-.34.33v15.34a.33.33 0 00.67 0V.33A.33.33 0 003.67 0z"/>
    <path d="M7.24 3.43L3.9.1a.33.33 0 00-.47 0L.1 3.43a.33.33 0 00.47.47L3.67.8l3.1 3.1a.33.33 0 00.47 0 .33.33 0 000-.47zM12.33 0a.33.33 0 00-.33.33v15.34a.33.33 0 00.67 0V.33a.33.33 0 00-.34-.33z"/>
    <path d="M15.9 12.1a.33.33 0 00-.47 0l-3.1 3.1-3.1-3.1a.33.33 0 00-.47.47l3.34 3.33a.34.34 0 00.47 0l3.33-3.33a.33.33 0 000-.47z"/>
  </g>
  <defs>
    <clipPath id="clip0">
      <path fill="#fff" d="M0 0h16v16H0z"/>
    </clipPath>
  </defs>
</svg>