<svg width="90" height="53" fill="none" xmlns="http://www.w3.org/2000/svg">
  <path d="M62 6.3c-.3 0-.7.3-.7.7-.1.9.7 3.6 2.5 5.5.6.5 1.2 1 1.8 1.3-1.1.5-2.3 1-3.6 1a.8.8 0 000 1.6c2 0 3.7-1 5.3-1.8 1.3-.7 2.6-1.4 4-1.4a.8.8 0 000-1.6 9 9 0 00-3.6 1c-1 0-1.9-.3-2.7-1.2a8.5 8.5 0 01-2.2-4.3c0-.4-.3-.8-.7-.8zM65.5 17.6l-.8.8a.8.8 0 101 1.1l.9-.8a.8.8 0 10-1.1-1zM66.1 29.9a.8.8 0 00-.3-1.6c-1.1.3-2 .3-2.5.2-.4-1.4-1-2.7-3-3.6a.8.8 0 10-.6 1.4c1.5.7 1.8 1.7 2.3 3.2.5 1.3 1 3 2.9 4.7a.8.8 0 001-.1c.4-.3.3-.8 0-1.1-1-1-1.6-2-2-3h.2l2-.1zM75 27.2l-.7.8a.8.8 0 101 1.1l.9-.8a.8.8 0 10-1.1-1z" fill="#979797"/>
  <path d="M38 15.3c.6-.4 1.6-.7 2.8-.9-1.1 1.8-2 3.6-2.7 5.6a.8.8 0 101.5.5 23 23 0 013.1-6.2c1.8 0 3.7.3 4.9 1a.8.8 0 001-.2c.3-.4.1-.9-.2-1-1.2-.8-2.8-1.2-4.5-1.3l1.2-1.3 2-2A6 6 0 0050 11a.8.8 0 000-1.5c-.3 0-1.1-.4-1.7-1a30.8 30.8 0 015-3.6c1 .5 1.8 1.1 2.4 1.9a3.7 3.7 0 01.6 1c.1.6.2 1.1 0 1.7a.8.8 0 101.5.4c.2-.7.2-1.5 0-2.2l.6-.7a14 14 0 002.9-4.5 19.7 19.7 0 019.6 1.8c-1.1.7-2 1.6-2.9 2.3l-.2.2a.8.8 0 001 1.1l.3-.2c1-1 2.2-2 3.5-2.6a65.6 65.6 0 017.9 5l-2 1.8c-.9-1-2.6-2.4-4.3-3a.8.8 0 00-.4 1.6c1.7.5 3.2 2 3.8 2.7a11.7 11.7 0 00-2.6 7.3.8.8 0 101.6 0c-.2-2.1.9-4.8 2.8-7.1a15 15 0 012.1-2.2c1 1.1 2 2.5 2.6 4a.8.8 0 101.4-.7c-.7-1.6-1.6-3-2.7-4.2.9-.5 1.7-.9 2.4-1a.8.8 0 00-.2-1.5 8 8 0 00-3.3 1.3A16 16 0 0079 7 87.5 87.5 0 0076 4.9a.8.8 0 10.5-1.5 5.5 5.5 0 00-3.7 0A23.4 23.4 0 0061.4.9l-.2-.4a.8.8 0 00-1.4.6 20 20 0 00-6.4 2c-1.3-.6-2.5-1-3-1a.8.8 0 100 1.6c.2 0 .7.1 1.3.4-1.6 1-3 2-4.3 3.2V7a.8.8 0 00-1.6.1c0 .5.1.9.3 1.3a85.5 85.5 0 00-4.1 4.4c-2 0-3.9.5-5 1.2a.8.8 0 101 1.3zM59.6 2.7C59 3.9 57.8 5.3 57.2 6v.1l-.3-.2A8.4 8.4 0 0055 4c1.6-.7 3-1.2 4.7-1.4zM79.2 27.9c.4 0 .8-.3.8-.7.1-.7-.1-1.5-.7-2.1-.4-.5-1.2-1-1.7-1a.8.8 0 00-.2 1.5c.3 0 1.2.8 1 1.4 0 .4.3.8.8.9zM49.8 25.3c-1.1.4-3 2.2-3.3 3a.8.8 0 001.5.5c.2-.4 1.7-1.8 2.2-2a.8.8 0 10-.4-1.5zM53.9 38.2c1 1.3 2.3 2.8 4.6 3.9a.8.8 0 10.6-1.4 9.5 9.5 0 01-3-2.2l.6-.2c1.7-.4 3.7-1 4.6.2a.8.8 0 001.1 0c.4-.2.4-.7.1-1-1.5-1.9-4.2-1.2-6.2-.7l-1.3.3c-1.5-1.8-3-3.6-7-3.9a.8.8 0 000 1.6c3.3.2 4.4 1.6 5.9 3.4z" fill="#979797"/>
  <path d="M89.6 30a.8.8 0 00-1-.3l-.8.4a31 31 0 000-7c.7-1 1-2.2.9-3.5a.8.8 0 00-1.5-.3L87 18a.8.8 0 10-1.5.5c.4 1.4.7 2.8.9 4.3a24.8 24.8 0 01-1.3 1.9l-.4-.5c-1.2-1.6-3.3-4-2.5-6a.8.8 0 10-1.5-.6c-1 2.8 1.3 5.8 2.8 7.5l.6.9c-.7 1-1.2 2-1.5 3.2a.8.8 0 101.5.3c.3-1.4 1.3-2.7 2.3-4l.2-.2a31.3 31.3 0 01-.4 5.9c-1.4 1-2.8 2-3.2 2.6a.8.8 0 001.3.8l1.4-1.2a19.8 19.8 0 01-2.7 5.9 6 6 0 01-3.6 0c-1.7-.5-3.2-1.9-4.4-3.3 1.6-.4 3.3-.6 5-.7a.8.8 0 00-.2-1.6c-4.8.5-10 1.5-12.3 5a.8.8 0 001.3.8c1-1.4 2.6-2.4 4.6-3 1.4 1.7 3.2 3.5 5.6 4.3a7.2 7.2 0 002.6.3 19 19 0 01-5.3 4l-1.4.8c-1.3-.4-2.7-1-3.8-1.7a17 17 0 002-.8.8.8 0 10-.7-1.4c-2.1 1-4.1 1.3-5.7 1.5-1.5.2-2.7.4-3.6 1a.8.8 0 10.8 1.3c.7-.4 1.7-.6 3-.8l2.1-.3a24.9 24.9 0 004 2.2 22.5 22.5 0 01-10.4 3.5c-3.1 0-6-.5-8.5-1.4.2-.6.2-1.3.2-2l1-.2c1.2-.3 2.7-.7 3.9-.3a.8.8 0 10.5-1.4c-1.6-.6-3.4-.2-4.7.2l-1 .2c0-.7-.3-1.4-.6-2-1-2.2-2.4-3.8-3-4.3a.8.8 0 00-1 1.3 10.8 10.8 0 013.3 6v2c-1-.5-2-1-2.9-1.7a.8.8 0 00-.9 1.3c1 .7 2.2 1.3 3.4 1.9l-.6 1.3a.8.8 0 001.3.7l.7-1.5c2.7 1 5.7 1.4 9 1.4 4.4 0 8.6-2.3 12.2-4.3l.3-.1 1.1.1 1-.1a.8.8 0 00.4-1.4c2.5-1.4 4.6-3.3 6.3-5.5 1.1-.4 2.3-1 3.6-2a.8.8 0 00-1-1.3l-1 .8c.9-1.8 1.6-3.8 2-6l1.8-1.1c.4-.2.5-.7.3-1zM44.6 41.2c.3-1.2.8-2 1.4-2.7a.8.8 0 00-1.1-1 8 8 0 00-1.3 1.8l-1.4-2.6a32 32 0 01-3.2-7.1c.2-.9.5-1.6.9-2.2 1.2 1.2 3.5 3.6 3.5 5.4a.8.8 0 101.6 0c0-2.5-2.6-5-4-6.4l-.2-.3c1.1-1.4 2.6-2.3 4.2-3.3l.8-.5A.8.8 0 1045 21l-.8.5a15.6 15.6 0 00-5 4.1c-.3.3-.4.6-.6 1v-.2c0-.8 0-1.7.2-2.6a.8.8 0 00-1.6-.2l-.2 2.8c0 1.1.2 2.1.4 3.2-.4 1.3-.6 2.9-.7 4.8a.8.8 0 001.6 0l.1-1.8c.7 1.7 1.6 3.3 2.5 4.9l1.6 3.1.4.7c-.6 2-.7 4-.2 4.9a.8.8 0 001.3-.8v-2.1l2 2.3a.8.8 0 001 0c.4-.2.4-.7 0-1-.9-1-1.7-2.2-2.4-3.4z" fill="#979797"/>
  <path d="M67.5 26.3a2.7 2.7 0 003.8 0l1-1a1.3 1.3 0 000-1.8l-2-2a1.3 1.3 0 00-1.8 0l-1 1c-1 1-1 2.7 0 3.8zm1.1-2.7l.8-.8 1.7 1.6-.9.8a1.2 1.2 0 01-1.6-1.6zM42 18.4a.8.8 0 001 1.2c.5-.5 1.5-.7 2-.6a.8.8 0 00.3-1.5 4 4 0 00-3.3 1zM56.5 33.3a.8.8 0 001 0c.4-.2.4-.7 0-1-.7-.8-2.3-4.8-1.4-7.2.6-1.4.8-4 .6-6.7 0-1.3-.5-4.7-1.8-6.2a.8.8 0 10-1.2 1c.7.8 1.3 2.9 1.5 5.4v3.6a9.7 9.7 0 00-5-4l-.8-.4a.8.8 0 10-.7 1.4l.9.4c1.6.7 4 1.7 5 5.2-1 3 .8 7.4 1.9 8.5zM7.4 10c4.1 0 7.5 3.3 7.5 7.4a.8.8 0 11-1.7 0 5.8 5.8 0 10-5.8 5.8h17.7a.8.8 0 010 1.7H7.4a7.5 7.5 0 010-15z" fill="#979797"/>
  <path d="M23.2 8.3c3.2 0 5.7 2.6 5.7 5.8a.8.8 0 01-1.6 0 4.1 4.1 0 10-4.1 4.2h8.6a.8.8 0 010 1.6h-8.6a5.8 5.8 0 010-11.6zM9.1 28.2h18.3a.8.8 0 010 1.6H9a4.1 4.1 0 104.1 4.2.8.8 0 111.7 0A5.8 5.8 0 119 28.2z" fill="#979797"/>
</svg>
